<svg width="28" height="28" viewBox="0 0 28 28" fill="none" xmlns="http://www.w3.org/2000/svg">
<path d="M8.22244 11.354C8.13868 11.5325 8.06538 11.732 8.00256 11.921L4.62048 9.28552C6.3377 5.85202 9.87683 3.5 13.9709 3.5C16.798 3.5 19.1644 4.53951 20.9759 6.23001L18.0231 9.12803C17.2587 8.41403 15.9394 7.56351 13.9709 7.56351C11.416 7.56351 9.21717 9.11753 8.22244 11.354Z" fill="#EA4335"/>
<path d="M7.66738 14C7.66738 14.7245 7.79303 15.428 8.01292 16.079L4.63085 18.7064L4.62038 18.7146C3.90836 17.2866 3.5 15.6905 3.5 14C3.5 12.3095 3.90836 10.7135 4.62038 9.28552L8.00245 11.921C7.79303 12.572 7.66738 13.2755 7.66738 14Z" fill="#FBBC05"/>
<path d="M13.9707 20.447C15.5308 20.447 16.7245 20.0165 17.604 19.397L20.9023 21.959C19.1747 23.5655 16.7978 24.5 13.9707 24.5C9.87658 24.5 6.34792 22.148 4.63071 18.7145V18.7064L4.62024 18.7145L4.63071 18.704V18.7064L8.01279 16.079C8.85045 18.62 11.2064 20.447 13.9707 20.447Z" fill="#34A853"/>
<path d="M13.9706 12.0996H23.8027C23.9493 12.7506 24.0226 13.3806 24.0226 14.2311C24.0226 17.4336 22.8813 20.1321 20.9023 21.9591L17.604 19.3971C18.9966 18.4206 19.6249 16.9611 19.7401 15.9951H13.9706V12.0996Z" fill="#4285F4"/>
</svg>
