<svg width="22" height="21" viewBox="0 0 22 21" fill="none" xmlns="http://www.w3.org/2000/svg">
<path d="M10.9979 13.2C10.5787 13.2 10.2311 12.8523 10.2311 12.4331V7.32083C10.2311 6.90162 10.5787 6.55399 10.9979 6.55399C11.4171 6.55399 11.7648 6.90162 11.7648 7.32083V12.4331C11.7648 12.8523 11.4171 13.2 10.9979 13.2Z" fill="#1C1C1E" fill-opacity="0.54"/>
<path d="M10.9979 16.523C10.9366 16.523 10.865 16.5128 10.7934 16.5026C10.7321 16.4923 10.6707 16.4719 10.6094 16.4412C10.548 16.4208 10.4867 16.3901 10.4253 16.3492C10.3742 16.3083 10.3231 16.2674 10.272 16.2265C10.0879 16.0322 9.97545 15.7664 9.97545 15.5006C9.97545 15.2347 10.0879 14.9689 10.272 14.7746C10.3231 14.7337 10.3742 14.6928 10.4253 14.6519C10.4867 14.611 10.548 14.5803 10.6094 14.5599C10.6707 14.5292 10.7321 14.5088 10.7934 14.4985C10.9263 14.4679 11.0695 14.4679 11.1922 14.4985C11.2637 14.5088 11.3251 14.5292 11.3864 14.5599C11.4478 14.5803 11.5091 14.611 11.5705 14.6519C11.6216 14.6928 11.6727 14.7337 11.7239 14.7746C11.9079 14.9689 12.0204 15.2347 12.0204 15.5006C12.0204 15.7664 11.9079 16.0322 11.7239 16.2265C11.6727 16.2674 11.6216 16.3083 11.5705 16.3492C11.5091 16.3901 11.4478 16.4208 11.3864 16.4412C11.3251 16.4719 11.2637 16.4923 11.1922 16.5026C11.1308 16.5128 11.0593 16.523 10.9979 16.523Z" fill="#1C1C1E" fill-opacity="0.54"/>
<path d="M17.194 20.7763H4.80179C2.808 20.7763 1.28454 20.0504 0.50747 18.7416C-0.259373 17.4329 -0.157128 15.7458 0.814207 13.9974L7.0103 2.85266C8.03276 1.01223 9.44375 0 10.9979 0C12.552 0 13.963 1.01223 14.9855 2.85266L21.1816 14.0077C22.1529 15.7561 22.2654 17.4329 21.4883 18.7519C20.7112 20.0504 19.1878 20.7763 17.194 20.7763ZM10.9979 1.53369C10.0368 1.53369 9.09611 2.26986 8.34972 3.59905L2.16385 14.7541C1.46858 16.0015 1.35611 17.1466 1.83666 17.9748C2.31722 18.803 3.38058 19.2529 4.81202 19.2529H17.2042C18.6356 19.2529 19.6888 18.803 20.1796 17.9748C20.6703 17.1466 20.5476 16.0117 19.8524 14.7541L13.6461 3.59905C12.8997 2.26986 11.959 1.53369 10.9979 1.53369Z" fill="#1C1C1E" fill-opacity="0.54"/>
</svg>
