<svg width="11" height="12" viewBox="0 0 11 12" fill="none" xmlns="http://www.w3.org/2000/svg">
<path d="M2.39999 5.99998H3.59999V7.19998H2.39999V5.99998ZM10.8 2.39999V10.8C10.8 11.1182 10.6735 11.4234 10.4485 11.6485C10.2235 11.8735 9.91823 12 9.59997 12H1.2C0.533998 12 0 11.46 0 10.8V2.39999C0 2.08173 0.126428 1.77651 0.351471 1.55147C0.576514 1.32642 0.881737 1.2 1.2 1.2H1.79999V0H2.99999V1.2H7.79998V0H8.99997V1.2H9.59997C9.91823 1.2 10.2235 1.32642 10.4485 1.55147C10.6735 1.77651 10.8 2.08173 10.8 2.39999ZM1.2 3.59999H9.59997V2.39999H1.2V3.59999ZM9.59997 10.8V4.79998H1.2V10.8H9.59997ZM7.19998 7.19998V5.99998H8.39997V7.19998H7.19998ZM4.79998 7.19998V5.99998H5.99998V7.19998H4.79998ZM2.39999 8.39997H3.59999V9.59997H2.39999V8.39997ZM7.19998 9.59997V8.39997H8.39997V9.59997H7.19998ZM4.79998 9.59997V8.39997H5.99998V9.59997H4.79998Z" fill="#1C2120" fill-opacity="0.5"/>
</svg>
