<svg width="22" height="22" viewBox="0 0 22 22" fill="none" xmlns="http://www.w3.org/2000/svg">
<path d="M11 22C4.93209 22 0 17.0679 0 11C0 8.58512 0.767442 6.29302 2.22047 4.3693C2.47628 4.03163 2.95721 3.97023 3.29488 4.22605C3.63256 4.48186 3.70419 4.96279 3.44837 5.30046C2.2 6.94791 1.53488 8.92279 1.53488 11C1.53488 16.2186 5.7814 20.4651 11 20.4651C16.2186 20.4651 20.4651 16.2186 20.4651 11C20.4651 5.7814 16.2186 1.53488 11 1.53488C10.5805 1.53488 10.2326 1.18698 10.2326 0.767442C10.2326 0.347907 10.5805 0 11 0C17.0679 0 22 4.93209 22 11C22 17.0679 17.0679 22 11 22Z" fill="#1C1C1E" fill-opacity="0.54"/>
<path d="M11 18.9302C6.6307 18.9302 3.06977 15.3693 3.06977 11C3.06977 10.5805 3.41767 10.2326 3.83721 10.2326C4.25674 10.2326 4.60465 10.5805 4.60465 11C4.60465 14.5302 7.46977 17.3953 11 17.3953C14.5302 17.3953 17.3953 14.5302 17.3953 11C17.3953 7.46977 14.5302 4.60465 11 4.60465C10.5805 4.60465 10.2326 4.25674 10.2326 3.83721C10.2326 3.41767 10.5805 3.06977 11 3.06977C15.3693 3.06977 18.9302 6.6307 18.9302 11C18.9302 15.3693 15.3693 18.9302 11 18.9302Z" fill="#1C1C1E" fill-opacity="0.54"/>
<path d="M11 15.8605C10.5805 15.8605 10.2326 15.5126 10.2326 15.093C10.2326 14.6735 10.5805 14.3256 11 14.3256C12.8316 14.3256 14.3256 12.8316 14.3256 11C14.3256 9.16837 12.8316 7.67442 11 7.67442C10.5805 7.67442 10.2326 7.32651 10.2326 6.90698C10.2326 6.48744 10.5805 6.13953 11 6.13953C13.6809 6.13953 15.8605 8.31907 15.8605 11C15.8605 13.6809 13.6809 15.8605 11 15.8605Z" fill="#1C1C1E" fill-opacity="0.54"/>
</svg>
