<svg width="28" height="28" viewBox="0 0 28 28" fill="none" xmlns="http://www.w3.org/2000/svg">
<mask id="mask0_0_114" style="mask-type:alpha" maskUnits="userSpaceOnUse" x="3" y="3" width="22" height="22">
<path fill-rule="evenodd" clip-rule="evenodd" d="M3.50006 3.5H24.5001V24.4991H3.50006V3.5Z" fill="white"/>
</mask>
<g mask="url(#mask0_0_114)">
<path fill-rule="evenodd" clip-rule="evenodd" d="M21.0125 19.846C21.0143 20.0776 20.9398 20.1442 20.7144 20.1389C20.0741 20.1267 19.4337 20.117 18.7943 20.1425C18.4733 20.1556 18.3767 20.0723 18.3811 19.7382C18.4005 18.2988 18.3882 16.8585 18.3908 15.4184C18.3908 15.0237 18.3646 14.6325 18.2197 14.2605C17.9742 13.6325 17.5505 13.2072 16.848 13.1457C16.1006 13.0799 15.5578 13.4202 15.1911 14.051C14.9508 14.4641 14.8956 14.9254 14.8964 15.3972C14.8999 16.8524 14.8885 18.3066 14.9051 19.7609C14.9096 20.0741 14.8139 20.1521 14.5139 20.1416C13.8745 20.1196 13.2342 20.125 12.594 20.1399C12.3484 20.146 12.2738 20.0723 12.2738 19.8232C12.2817 16.827 12.2808 13.8307 12.2756 10.8346C12.2756 10.6197 12.3195 10.5231 12.5615 10.5285C13.2447 10.5433 13.9289 10.5433 14.6122 10.5285C14.849 10.5241 14.9113 10.6099 14.9016 10.8311C14.8867 11.1898 14.8981 11.5493 14.8981 12.0019C15.9113 10.7494 17.1312 10.3381 18.5803 10.6302C19.9837 10.9134 20.9493 12.1766 20.9897 13.8685C21.037 15.8595 21.0021 17.8532 21.0125 19.846ZM9.21976 9.41357C8.36974 9.41173 7.70489 8.7381 7.70673 7.88212C7.7084 7.0365 8.39351 6.34717 9.22844 6.34884C10.0644 6.35147 10.7433 7.04351 10.7407 7.88993C10.7388 8.74784 10.0723 9.41524 9.21976 9.41357ZM10.1602 20.1423C9.52152 20.1169 8.88044 20.1265 8.24102 20.1388C8.012 20.1433 7.90859 20.1011 7.90938 19.8345C7.91824 16.84 7.91727 13.8465 7.91026 10.8519C7.90938 10.6117 7.96736 10.5212 8.22339 10.5283C8.87693 10.5449 9.53205 10.5494 10.1847 10.5265C10.4855 10.516 10.5407 10.6274 10.5391 10.8993C10.5277 12.3816 10.5337 13.8639 10.5337 15.3471C10.5337 16.8146 10.525 18.2829 10.5399 19.7511C10.5435 20.0494 10.4749 20.1547 10.1602 20.1423ZM24.4553 7.0524C24.3956 6.57604 24.3877 6.08573 24.1246 5.65954C23.273 4.27808 22.0976 3.49122 20.4126 3.50007C16.1499 3.522 11.8871 3.50007 7.62425 3.51499C6.98404 3.51665 6.32533 3.5377 5.7438 3.88153C4.32453 4.72181 3.49127 5.89627 3.50013 7.61805C3.52022 11.895 3.50013 16.1717 3.51408 20.4494C3.51671 21.052 3.52557 21.6826 3.84124 22.2256C4.58679 23.5098 5.56925 24.4632 7.18306 24.457C7.22955 24.457 7.2656 24.4789 7.30419 24.4991H20.746C20.8206 24.4324 20.9118 24.4657 20.996 24.4552C21.4792 24.3947 21.9784 24.3921 22.4072 24.1149C23.6062 23.3395 24.4877 22.3633 24.4606 20.8204C24.4606 20.7932 24.4798 20.7688 24.5001 20.746V7.30413C24.4404 7.22782 24.4658 7.13739 24.4553 7.0524Z" fill="#0B66C2"/>
</g>
</svg>
