<svg width="22" height="19" viewBox="0 0 22 19" fill="none" xmlns="http://www.w3.org/2000/svg">
<path d="M11.0052 13.9327C8.51087 13.9327 6.4862 11.908 6.4862 9.41372C6.4862 6.91942 8.51087 4.89475 11.0052 4.89475C13.4995 4.89475 15.5241 6.91942 15.5241 9.41372C15.5241 11.908 13.4995 13.9327 11.0052 13.9327ZM11.0052 6.46021C9.37709 6.46021 8.05167 7.78564 8.05167 9.41372C8.05167 11.0418 9.37709 12.3672 11.0052 12.3672C12.6333 12.3672 13.9587 11.0418 13.9587 9.41372C13.9587 7.78564 12.6333 6.46021 11.0052 6.46021Z" fill="#1C1C1E"/>
<path d="M11.0052 18.8273C7.08111 18.8273 3.37618 16.5313 0.829696 12.5446C-0.276565 10.8226 -0.276565 8.01517 0.829696 6.28273C3.38662 2.29601 7.09155 0 11.0052 0C14.9189 0 18.6238 2.29601 21.1703 6.28273C22.2765 8.00474 22.2765 10.8121 21.1703 12.5446C18.6238 16.5313 14.9189 18.8273 11.0052 18.8273ZM11.0052 1.56546C7.63424 1.56546 4.40939 3.59013 2.15512 7.12808C1.37239 8.34914 1.37239 10.4782 2.15512 11.6992C4.40939 15.2372 7.63424 17.2618 11.0052 17.2618C14.3762 17.2618 17.601 15.2372 19.8553 11.6992C20.638 10.4782 20.638 8.34914 19.8553 7.12808C17.601 3.59013 14.3762 1.56546 11.0052 1.56546Z" fill="#1C1C1E"/>
</svg>
